<svg width="24" height="24" viewBox="0 0 24 24" fill="none" xmlns="http://www.w3.org/2000/svg">
<path opacity="0.4" d="M18.5099 1.80017C18.0099 1.80017 17.6099 2.20017 17.6099 2.70017V7.35017C17.6099 7.85017 18.0099 8.25017 18.5099 8.25017C19.0099 8.25017 19.4099 7.85017 19.4099 7.35017V2.70017C19.4099 2.20017 19.0099 1.80017 18.5099 1.80017Z" fill="#3E474F"/>
<path d="M12.0001 15.75C11.5001 15.75 11.1001 16.15 11.1001 16.65V21.3C11.1001 21.8 11.5001 22.2 12.0001 22.2C12.5001 22.2 12.9001 21.8 12.9001 21.3V16.65C12.9001 16.16 12.5001 15.75 12.0001 15.75Z" fill="#B2B5B9"/>
<path opacity="0.4" d="M5.49033 1.80017C4.99033 1.80017 4.59033 2.20017 4.59033 2.70017V7.35017C4.59033 7.85017 4.99033 8.25017 5.49033 8.25017C5.99033 8.25017 6.39033 7.85017 6.39033 7.35017V2.70017C6.39033 2.20017 5.98033 1.80017 5.49033 1.80017Z" fill="#3E474F"/>
<path opacity="0.4" d="M7.34998 10.1703H3.62998C3.12998 10.1703 2.72998 10.5703 2.72998 11.0703C2.72998 11.5703 3.12998 11.9703 3.62998 11.9703H4.58998V21.3003C4.58998 21.8003 4.98998 22.2003 5.48998 22.2003C5.98998 22.2003 6.38998 21.8003 6.38998 21.3003V11.9703H7.34998C7.84998 11.9703 8.24998 11.5703 8.24998 11.0703C8.24998 10.5703 7.83998 10.1703 7.34998 10.1703Z" fill="#3E474F"/>
<path opacity="0.4" d="M20.37 10.1703H16.65C16.15 10.1703 15.75 10.5703 15.75 11.0703C15.75 11.5703 16.15 11.9703 16.65 11.9703H17.61V21.3003C17.61 21.8003 18.01 22.2003 18.51 22.2003C19.01 22.2003 19.41 21.8003 19.41 21.3003V11.9703H20.37C20.87 11.9703 21.27 11.5703 21.27 11.0703C21.27 10.5703 20.87 10.1703 20.37 10.1703Z" fill="#3E474F"/>
<path d="M13.8597 12.0302H12.8997V2.70017C12.8997 2.20017 12.4997 1.80017 11.9997 1.80017C11.4997 1.80017 11.0997 2.20017 11.0997 2.70017V12.0302H10.1397C9.63975 12.0302 9.23975 12.4302 9.23975 12.9302C9.23975 13.4302 9.63975 13.8302 10.1397 13.8302H13.8597C14.3597 13.8302 14.7597 13.4302 14.7597 12.9302C14.7597 12.4302 14.3597 12.0302 13.8597 12.0302Z" fill="#B2B5B9"/>
</svg>
