<svg width="32" height="32" viewBox="0 0 32 32" fill="none" xmlns="http://www.w3.org/2000/svg">
<path fill-rule="evenodd" clip-rule="evenodd" d="M8.36141 2.81531C7.28184 2.95751 6.71014 3.21761 6.30295 3.61655C5.89576 4.01549 5.63028 4.57559 5.48513 5.63329C5.33572 6.72208 5.33337 8.16513 5.33337 10.2342V21.6589C5.85161 21.3041 6.43569 21.0341 7.06535 20.8688C7.76959 20.684 8.59078 20.6842 9.79422 20.6846L26.6667 20.6846V10.2342C26.6667 8.16513 26.6644 6.72208 26.515 5.63329C26.3698 4.57559 26.1043 4.01549 25.6971 3.61655C25.2899 3.21761 24.7182 2.95751 23.6387 2.81531C22.5273 2.66892 21.0544 2.66663 18.9426 2.66663H13.0575C10.9456 2.66663 9.47273 2.66892 8.36141 2.81531ZM9.01153 8.79275C9.01153 8.19569 9.50557 7.71167 10.115 7.71167H21.8851C22.4945 7.71167 22.9885 8.19569 22.9885 8.79275C22.9885 9.38982 22.4945 9.87383 21.8851 9.87383H10.115C9.50557 9.87383 9.01153 9.38982 9.01153 8.79275ZM10.115 12.7567C9.50557 12.7567 9.01153 13.2407 9.01153 13.8378C9.01153 14.4349 9.50557 14.9189 10.115 14.9189H17.4713C18.0807 14.9189 18.5748 14.4349 18.5748 13.8378C18.5748 13.2407 18.0807 12.7567 17.4713 12.7567H10.115Z" fill="white"/>
<path d="M9.96459 22.8468H11.5862H17.4713H26.6656C26.6609 24.3543 26.6368 25.4783 26.515 26.3666C26.3698 27.4243 26.1043 27.9844 25.6971 28.3834C25.2899 28.7823 24.7182 29.0424 23.6387 29.1846C22.5273 29.331 21.0544 29.3333 18.9426 29.3333H13.0575C10.9456 29.3333 9.47273 29.331 8.36141 29.1846C7.28184 29.0424 6.71014 28.7823 6.30295 28.3834C5.89576 27.9844 5.63028 27.4243 5.48513 26.3666C5.43017 25.9661 5.3951 25.5176 5.37274 25.0077C5.73455 24.0059 6.57823 23.2351 7.63654 22.9573C8.02214 22.8561 8.52531 22.8468 9.96459 22.8468Z" fill="white"/>
</svg>
