<svg width="50" height="50" viewBox="0 0 30 30" fill="none" xmlns="http://www.w3.org/2000/svg">
<path d="M26.0376 10.0126L17.8501 3.46264C16.2501 2.18765 13.7501 2.17515 12.1626 3.45015L3.97508 10.0126C2.80008 10.9501 2.08758 12.8251 2.33758 14.3001L3.91258 23.7251C4.27508 25.8376 6.23758 27.5001 8.37508 27.5001H21.6251C23.7376 27.5001 25.7376 25.8001 26.1001 23.7126L27.6751 14.2876C27.9001 12.8251 27.1876 10.9501 26.0376 10.0126ZM15.9376 22.5001C15.9376 23.0126 15.5126 23.4376 15.0001 23.4376C14.4876 23.4376 14.0626 23.0126 14.0626 22.5001V18.7501C14.0626 18.2376 14.4876 17.8126 15.0001 17.8126C15.5126 17.8126 15.9376 18.2376 15.9376 18.7501V22.5001Z" fill="currentColor"/>
</svg>
