<svg width="60" height="60" viewBox="0 0 60 60" fill="none" xmlns="http://www.w3.org/2000/svg">
<path d="M5 40C5 32.9289 5 29.3934 7.1967 27.1967C9.3934 25 12.9289 25 20 25H40C47.0711 25 50.6066 25 52.8033 27.1967C55 29.3934 55 32.9289 55 40C55 47.0711 55 50.6066 52.8033 52.8033C50.6066 55 47.0711 55 40 55H20C12.9289 55 9.3934 55 7.1967 52.8033C5 50.6066 5 47.0711 5 40Z" stroke="#1C274C" stroke-width="1.5"/>
<path opacity="0.5" d="M15 25V20C15 11.7157 21.7157 5 30 5C38.2843 5 45 11.7157 45 20V25" stroke="black" stroke-width="1.5" stroke-linecap="round"/>
</svg>
