<svg width="25" height="30" viewBox="0 0 25 30" fill="none" xmlns="http://www.w3.org/2000/svg">
<path d="M12.5003 0C5.59664 0 0 5.48595 0 12.2531C0 17.5877 7.7684 26.0535 11.0569 29.3984C11.8454 30.2005 13.1546 30.2005 13.9431 29.3984C17.2316 26.0535 25 17.5877 25 12.2531C25 5.48595 19.4041 0 12.5003 0ZM12.5003 16.9926C9.83011 16.9926 7.66525 14.8706 7.66525 12.2531C7.66525 9.6357 9.83011 7.51365 12.5003 7.51365C15.1706 7.51365 17.3354 9.6357 17.3354 12.2531C17.3354 14.8706 15.1706 16.9926 12.5003 16.9926Z" fill="white"/>
</svg>
