<svg width="30" height="30" viewBox="0 0 30 30" fill="none" xmlns="http://www.w3.org/2000/svg">
<path d="M1.07248 18.0696C0.416807 18.6345 0 19.4819 0 20.4291C0 22.1298 1.34344 23.5084 3.00067 23.5084C4.65789 23.5084 6.00133 22.1298 6.00133 20.4291C6.00133 18.9139 4.93484 17.6542 3.53014 17.3976C3.38199 16.6219 3.30436 15.8203 3.30436 15C3.30436 8.15428 8.71218 2.60473 15.3831 2.60473C17.2324 2.60473 18.9847 3.03124 20.5516 3.79364C21.0842 4.05278 21.7263 3.97317 22.1428 3.54519C22.728 2.94381 22.6228 1.93841 21.8812 1.56007C19.9238 0.561505 17.7173 0 15.3831 0C7.31037 0 0.766149 6.71573 0.766149 15C0.766149 16.052 0.871684 17.0787 1.07248 18.0696Z" fill="white"/>
<path d="M15.3831 27.3953C22.054 27.3953 27.4618 21.8457 27.4618 15C27.4618 13.2823 27.1213 11.6462 26.5058 10.1588C26.4066 10.169 26.3059 10.1742 26.204 10.1742C24.5446 10.1742 23.1994 8.79373 23.1994 7.09083C23.1994 5.38792 24.5446 4.00745 26.204 4.00745C27.8634 4.00745 29.2087 5.38792 29.2087 7.09083C29.2087 7.7263 29.0213 8.31688 28.7002 8.80757C29.5351 10.6953 30 12.7919 30 15C30 23.2843 23.4558 30 15.3831 30C12.0317 30 8.94377 28.8426 6.47814 26.8959C5.89256 26.4336 5.89188 25.5507 6.42923 25.0304C6.91389 24.5611 7.66463 24.5592 8.20007 24.9663C10.2077 26.4926 12.6927 27.3953 15.3831 27.3953Z" fill="white"/>
<path d="M19.2774 9.63009C19.2774 11.8627 17.5138 13.6726 15.3382 13.6726C13.1626 13.6726 11.399 11.8627 11.399 9.63009C11.399 7.39749 13.1626 5.58762 15.3382 5.58762C17.5138 5.58762 19.2774 7.39749 19.2774 9.63009Z" fill="white"/>
<path d="M15.3565 14.8108C10.6786 14.8108 8.76513 17.7527 8.13436 20.5404C7.84502 21.8192 8.9116 22.8949 10.1909 22.892C13.6065 22.8841 17.9418 22.8901 20.5625 22.8952C21.8473 22.8977 22.9104 21.8099 22.6059 20.529C21.948 17.7612 20.0154 14.8108 15.3565 14.8108Z" fill="white"/>
</svg>
